<?xml version="1.0" standalone="no"?><svg xmlns="http://www.w3.org/2000/svg" viewBox="0 0 1440 320"><path fill="#0099ff" fill-opacity="1" d="M0,288L30,272C60,256,120,224,180,208C240,192,300,192,360,208C420,224,480,256,540,272C600,288,660,288,720,240C780,192,840,96,900,74.7C960,53,1020,107,1080,138.7C1140,171,1200,181,1260,154.7C1320,128,1380,64,1410,32L1440,0L1440,320L1410,320C1380,320,1320,320,1260,320C1200,320,1140,320,1080,320C1020,320,960,320,900,320C840,320,780,320,720,320C660,320,600,320,540,320C480,320,420,320,360,320C300,320,240,320,180,320C120,320,60,320,30,320L0,320Z"></path></svg>